<svg width="449" height="290" viewBox="0 0 449 290" fill="none" xmlns="http://www.w3.org/2000/svg">
<path d="M86.0346 289.069H51.9303C42.2902 289.069 33.045 285.24 26.2284 278.423C19.4119 271.607 15.5824 262.361 15.5824 252.721V160.46C15.5824 150.82 19.4119 141.575 26.2284 134.758C33.045 127.942 42.2902 124.112 51.9303 124.112V124.112C61.5703 124.112 70.8155 127.942 77.6321 134.758C84.4486 141.575 88.2781 150.82 88.2781 160.46V216.373C106.976 215.752 124.665 207.741 137.465 194.097C150.266 180.453 157.133 162.29 156.562 143.59C155.309 105.111 122.182 75.2935 83.6908 75.2935H53.6098C39.5985 75.2935 26.161 69.7275 16.2535 59.82C6.346 49.9125 0.780029 36.4752 0.780029 22.4639V2.64795H82.5502C160.109 2.64795 226.262 62.8098 229.195 140.356C229.911 159.61 226.739 178.811 219.868 196.812C212.998 214.813 202.57 231.245 189.207 245.126C175.845 259.006 159.822 270.052 142.095 277.602C124.369 285.152 105.302 289.052 86.0346 289.069Z" fill="black"/>
<path d="M317.884 198.989C317.884 178.929 301.622 162.666 281.561 162.666C261.501 162.666 245.239 178.929 245.239 198.989V251.08C245.239 271.14 261.501 287.402 281.561 287.402C301.622 287.402 317.884 271.14 317.884 251.08V198.989Z" fill="black"/>
<path d="M281.561 72.9498C301.448 72.9498 317.57 56.8278 317.57 36.9403C317.57 17.0529 301.448 0.930908 281.561 0.930908C261.673 0.930908 245.552 17.0529 245.552 36.9403C245.552 56.8278 261.673 72.9498 281.561 72.9498Z" fill="black"/>
<path d="M412.678 286.901C406.467 286.899 400.361 285.306 394.942 282.273C389.522 279.241 384.97 274.871 381.719 269.579L296.69 130.718C291.682 122.51 290.13 112.653 292.373 103.304C294.616 93.9542 300.473 85.8746 308.66 80.8334V80.8334C316.881 75.8069 326.762 74.2509 336.131 76.5072C345.499 78.7635 353.588 84.6476 358.619 92.866L376.355 121.944V53.7607C376.355 39.7494 381.921 26.3118 391.828 16.4043C401.736 6.49677 415.173 0.930786 429.184 0.930786H449V249.463C449 261.996 443.185 274.217 432.631 280.985C426.687 284.834 419.759 286.888 412.678 286.901V286.901Z" fill="black"/>
</svg>
